# Blender v2.69 (sub 0) OBJ File: ''
# www.blender.org
o Cube_Cube.001
v -1.000000 2.048172 1.000000
v -1.000000 2.048172 -1.000000
v 1.000000 2.048172 -1.000000
v 1.000000 2.048172 1.000000
v -0.413492 4.953683 0.413492
v -0.413492 4.953683 -0.413492
v 0.413492 4.953683 -0.413492
v 0.413492 4.953683 0.413492
v -0.413492 5.239007 0.413492
v -0.413492 5.239007 -0.413492
v 0.413492 5.239007 -0.413492
v 0.413492 5.239007 0.413492
v -0.580312 5.239007 0.580312
v -0.580312 5.239007 -0.580312
v 0.580312 5.239007 -0.580312
v 0.580312 5.239007 0.580312
v -0.960029 2.000963 0.960029
v -0.960029 2.000963 -0.960029
v 0.960029 2.000963 -0.960029
v 0.960029 2.000963 0.960029
v -0.960029 2.047210 0.960029
v -0.960029 2.047210 -0.960029
v 0.960029 2.047210 -0.960029
v 0.960029 2.047210 0.960029
v 0.038466 2.000000 1.000000
v -0.038466 2.000000 1.000000
v -0.038466 0.000000 1.000000
v 0.038466 0.000000 1.000000
v -0.038466 2.000000 -1.000000
v 0.038466 2.000000 -1.000000
v 0.038466 0.000000 -1.000000
v -0.038466 0.000000 -1.000000
v 0.038466 2.000000 0.500710
v -0.038466 2.000000 0.500710
v -0.038466 0.000000 0.500710
v 0.038466 0.000000 0.500710
v -0.038466 2.000000 -0.500710
v 0.038466 2.000000 -0.500710
v 0.038466 0.000000 -0.500710
v -0.038466 0.000000 -0.500710
v -1.000000 2.048172 0.684970
v -1.000000 2.048172 -0.684970
v -1.000000 4.953683 0.684970
v -1.000000 4.953683 -0.684970
v 1.000000 2.048172 -0.684970
v 1.000000 2.048172 0.684970
v 1.000000 4.953683 -0.684970
v 1.000000 4.953683 0.684970
v -1.000000 2.153552 -0.579591
v -1.000000 2.153552 0.579591
v -1.000000 4.848303 -0.579591
v -1.000000 4.848303 0.579591
v 1.000000 2.153552 0.579591
v 1.000000 2.153552 -0.579591
v 1.000000 4.848303 0.579591
v 1.000000 4.848303 -0.579591
v -1.000000 2.153552 -0.579591
v -1.000000 2.153552 0.579591
v -1.000000 4.848303 -0.579591
v -1.000000 4.848303 0.579591
v 1.802853 2.153552 0.579591
v 1.802853 2.153552 -0.579591
v -1.802853 2.153552 -0.579591
v -1.802853 2.153552 0.579591
v -0.348766 6.375627 0.348766
v -0.580312 6.144081 0.580312
v -0.443351 6.344606 0.443351
v -0.528103 6.259854 0.528103
v -0.580312 6.144081 -0.580312
v -0.348766 6.375627 -0.348766
v -0.528103 6.259854 -0.528103
v -0.443351 6.344606 -0.443351
v 0.580312 6.144081 -0.580312
v 0.348766 6.375627 -0.348766
v 0.528103 6.259854 -0.528103
v 0.443351 6.344606 -0.443351
v 0.580312 6.144081 0.580312
v 0.348766 6.375627 0.348766
v 0.528103 6.259854 0.528103
v 0.443351 6.344606 0.443351
v 1.802853 4.474977 0.579591
v 1.429526 4.848303 0.579591
v 1.752836 4.661640 0.579591
v 1.616189 4.798287 0.579591
v 1.429526 4.848303 -0.579591
v 1.802853 4.474977 -0.579591
v 1.616189 4.798287 -0.579591
v 1.752836 4.661640 -0.579591
v -1.802853 4.474977 -0.579591
v -1.429526 4.848303 -0.579591
v -1.752836 4.661640 -0.579591
v -1.616189 4.798287 -0.579591
v -1.429526 4.848303 0.579591
v -1.802853 4.474977 0.579591
v -1.616189 4.798287 0.579591
v -1.752836 4.661640 0.579591
v -1.000000 4.700140 1.000000
v -0.746457 4.953683 0.746457
v -1.000000 4.953683 0.746457
v -0.919630 4.826911 0.966032
v -0.826827 4.919714 0.873228
v -0.746457 4.953683 -0.746457
v -1.000000 4.700140 -1.000000
v -1.000000 4.953683 -0.685021
v -0.826827 4.919714 -0.873228
v -0.919630 4.826911 -0.966032
v 1.000000 4.700140 -1.000000
v 0.746457 4.953683 -0.746457
v 1.000000 4.953683 -0.746457
v 0.919630 4.826911 -0.966032
v 0.826827 4.919714 -0.873228
v 0.746457 4.953683 0.746457
v 1.000000 4.700140 1.000000
v 1.000000 4.953683 0.685021
v 0.826827 4.919714 0.873228
v 0.919630 4.826911 0.966032
v -0.771614 0.000000 1.000000
v -1.000000 0.000000 0.771614
v -0.885807 0.000000 0.969402
v -0.969402 0.000000 0.885807
v -1.000000 0.000000 -0.771614
v -0.771614 0.000000 -1.000000
v -0.969402 0.000000 -0.885807
v -0.885807 0.000000 -0.969402
v 0.771614 0.000000 -1.000000
v 1.000000 0.000000 -0.771614
v 0.885807 0.000000 -0.969402
v 0.969402 0.000000 -0.885807
v 1.000000 0.000000 0.771614
v 0.771614 0.000000 1.000000
v 0.969402 0.000000 0.885807
v 0.885807 0.000000 0.969402
v -1.000000 2.000000 0.771614
v -0.771614 2.000000 1.000000
v -0.960064 2.000962 0.960064
v -0.969402 2.000000 0.885807
v -0.885807 2.000000 0.969402
v -0.771614 2.000000 -1.000000
v -1.000000 2.000000 -0.771614
v -0.960064 2.000962 -0.960064
v -0.885807 2.000000 -0.969402
v -0.969402 2.000000 -0.885807
v 1.000000 2.000000 -0.771614
v 0.771614 2.000000 -1.000000
v 0.960064 2.000962 -0.960064
v 0.969402 2.000000 -0.885807
v 0.885807 2.000000 -0.969402
v 0.771614 2.000000 1.000000
v 1.000000 2.000000 0.771614
v 0.960064 2.000962 0.960064
v 0.885807 2.000000 0.969402
v 0.969402 2.000000 0.885807
vn 0.000000 -1.000000 0.000000
vn 0.000000 0.000000 1.000000
vn 0.000000 0.000000 -1.000000
vn -0.024079 -0.999710 0.000000
vn 0.000000 1.000000 -0.000002
vn 0.000000 -0.999710 -0.024079
vn 0.024079 -0.999710 0.000000
vn 0.000000 -0.999710 0.024079
vn 1.000000 0.000000 0.000000
vn -1.000000 0.000000 0.000000
vn 0.000000 1.000000 0.000002
vn 0.000000 -1.000000 -0.000007
vn 0.000000 -1.000000 0.000007
vn 0.000000 1.000000 0.000000
vn -0.024076 0.999710 0.000000
vn 0.024076 0.999710 0.000000
vn 0.000000 0.999710 -0.024088
vn 0.000000 0.999710 0.024088
vn 0.000000 1.000000 0.000003
vn -0.311634 0.950202 0.000000
vn -0.707108 0.707106 0.000000
vn -0.911593 0.411094 0.000000
vn 0.000000 0.950198 -0.311646
vn 0.000000 0.707107 -0.707107
vn 0.000000 0.411096 -0.911592
vn 0.311634 0.950202 0.000000
vn 0.707108 0.707106 0.000000
vn 0.911593 0.411094 0.000000
vn 0.000000 0.950198 0.311646
vn 0.000000 0.707107 0.707107
vn 0.000000 0.411096 0.911592
vn 0.965926 0.258819 0.000000
vn 0.258817 0.965926 0.000000
vn -0.965926 0.258819 0.000000
vn -0.258817 0.965926 0.000000
vn -0.632455 0.547723 0.547723
vn -0.246720 0.797411 0.550695
vn 0.000000 0.965926 0.258817
vn -0.054739 0.972610 -0.225908
vn -0.347247 0.813595 -0.466350
vn -0.693921 0.560908 -0.451504
vn 0.632455 0.547723 -0.547723
vn 0.246720 0.797411 -0.550695
vn 0.000000 0.965926 -0.258817
vn 0.054739 0.972610 0.225908
vn 0.347247 0.813595 0.466350
vn 0.693921 0.560908 0.451504
vn 0.000000 0.965926 -0.258818
vn 0.000000 0.707105 -0.707108
vn 0.000000 0.258819 -0.965926
vn 0.000000 0.965926 0.258818
vn 0.000000 0.707105 0.707108
vn 0.000000 0.258819 0.965926
vn 0.000000 1.000000 -0.000003
vn -0.090680 -0.995584 0.024302
vn -0.014812 -0.999781 0.014807
vn -0.024298 -0.995582 0.090700
vn -0.024298 -0.995582 -0.090700
vn -0.014812 -0.999781 -0.014809
vn -0.090681 -0.995584 -0.024299
vn 0.090680 -0.995584 -0.024302
vn 0.014812 -0.999781 -0.014807
vn 0.024298 -0.995582 -0.090700
vn 0.024298 -0.995582 0.090700
vn 0.014812 -0.999781 0.014809
vn 0.090681 -0.995584 0.024299
vn -0.258819 0.000000 0.965926
vn -0.707107 0.000000 0.707107
vn -0.965926 0.000000 0.258819
vn -0.258819 0.000000 -0.965926
vn -0.707107 0.000000 -0.707107
vn -0.965926 0.000000 -0.258819
vn 0.965926 0.000000 -0.258818
vn 0.707107 0.000000 -0.707107
vn 0.258819 0.000000 -0.965926
vn 0.258819 0.000000 0.965926
vn 0.707107 0.000000 0.707107
vn 0.965926 0.000000 0.258819
vn 0.000000 1.000000 0.000001
vn 0.000000 -0.999710 -0.024075
vn 0.000000 -0.999710 0.024075
vn 0.000000 1.000000 -0.000001
vn 0.000000 -1.000000 0.000005
vn 0.000000 -1.000000 -0.000005
vn -0.026938 0.999637 0.000000
vn -0.027097 0.999633 0.000000
vn 0.026938 0.999637 0.000000
vn 0.027097 0.999633 0.000000
vn 0.000000 0.999713 -0.023972
vn 0.000000 0.999710 -0.024077
vn 0.000000 0.999605 -0.028094
vn 0.000000 0.999673 -0.025585
vn 0.000000 0.999713 0.023972
vn 0.000000 0.999710 0.024077
vn 0.000000 0.999605 0.028094
vn 0.000000 0.999673 0.025585
vn -0.707109 0.707105 0.000000
vn -0.911594 0.411092 0.000000
vn 0.000000 0.950203 -0.311631
vn 0.000000 0.707105 -0.707109
vn 0.000000 0.411091 -0.911594
vn 0.707109 0.707105 0.000000
vn 0.911594 0.411092 0.000000
vn 0.000000 0.950203 0.311631
vn 0.000000 0.707105 0.707109
vn 0.000000 0.411091 0.911594
vn 0.965926 0.258817 0.000000
vn 0.707107 0.707107 0.000000
vn 0.258818 0.965926 0.000000
vn -0.965926 0.258817 0.000000
vn -0.707107 0.707107 0.000000
vn -0.258818 0.965926 0.000000
vn 0.000000 0.258820 -0.965926
vn 0.000000 0.258820 0.965926
vn -0.965926 0.000000 0.258818
vn -0.965926 0.000000 -0.258818
vn 0.965926 0.000000 -0.258819
vn 0.965926 0.000000 0.258818
s off
f 117//1 119//1 27//1
f 148//2 25//2 130//2
f 30//3 144//3 31//3
f 138//3 29//3 122//3
f 26//2 134//2 27//2
f 1//4 41//4 21//4
f 6//5 102//5 104//5
f 2//6 3//6 22//6
f 3//7 45//7 23//7
f 4//8 1//8 24//8
f 5//2 8//2 9//2
f 4//9 46//9 113//9
f 2//10 42//10 103//10
f 3//3 2//3 107//3
f 41//10 1//10 97//10
f 8//11 112//11 114//11
f 45//9 3//9 107//9
f 1//2 4//2 97//2
f 9//12 12//12 13//12
f 8//9 7//9 12//9
f 7//3 6//3 11//3
f 6//10 5//10 10//10
f 15//3 14//3 73//3
f 12//1 11//1 16//1
f 11//13 10//13 15//13
f 10//1 9//1 14//1
f 13//2 16//2 66//2
f 16//9 15//9 77//9
f 78//14 74//14 65//14
f 17//2 20//2 21//2
f 20//9 19//9 24//9
f 19//3 18//3 23//3
f 18//10 17//10 22//10
f 140//15 139//15 133//15
f 150//16 149//16 143//16
f 145//17 144//17 30//17
f 135//18 134//18 26//18
f 32//9 29//9 40//9
f 143//9 149//9 126//9
f 30//10 31//10 38//10
f 33//2 34//2 36//2
f 37//3 38//3 40//3
f 31//14 32//14 39//14
f 29//1 30//1 37//1
f 26//9 27//9 34//9
f 28//10 25//10 36//10
f 27//14 28//14 35//14
f 25//1 26//1 33//1
f 6//19 7//19 102//19
f 50//2 52//2 58//2
f 64//2 58//2 94//2
f 50//10 49//10 41//10
f 51//10 52//10 44//10
f 49//10 51//10 42//10
f 52//10 50//10 43//10
f 54//9 53//9 45//9
f 55//9 56//9 48//9
f 53//9 55//9 46//9
f 56//9 54//9 47//9
f 51//2 49//2 59//2
f 52//2 51//2 60//2
f 49//2 50//2 57//2
f 53//2 61//2 81//2
f 57//3 63//3 89//3
f 63//10 64//10 89//10
f 57//1 58//1 63//1
f 60//14 59//14 93//14
f 62//3 54//3 86//3
f 61//9 62//9 81//9
f 53//1 54//1 61//1
f 65//20 70//20 67//20
f 67//21 72//21 68//21
f 68//22 71//22 66//22
f 70//23 74//23 72//23
f 72//24 76//24 71//24
f 71//25 75//25 69//25
f 74//26 78//26 76//26
f 76//27 80//27 75//27
f 75//28 79//28 73//28
f 78//29 65//29 80//29
f 80//30 67//30 79//30
f 79//31 68//31 77//31
f 14//10 13//10 69//10
f 81//32 86//32 83//32
f 83//27 88//27 84//27
f 84//33 87//33 82//33
f 89//34 94//34 91//34
f 91//21 96//21 92//21
f 92//35 95//35 90//35
f 56//14 55//14 85//14
f 97//36 100//36 99//36
f 100//37 101//37 99//37
f 101//38 98//38 99//38
f 102//39 105//39 104//39
f 105//40 106//40 104//40
f 106//41 103//41 104//41
f 107//42 110//42 109//42
f 110//43 111//43 109//43
f 111//44 108//44 109//44
f 112//45 115//45 114//45
f 115//46 116//46 114//46
f 116//47 113//47 114//47
f 102//48 108//48 105//48
f 105//49 111//49 106//49
f 106//50 110//50 103//50
f 112//51 98//51 115//51
f 115//52 101//52 116//52
f 116//53 100//53 113//53
f 8//54 5//54 112//54
f 133//55 136//55 135//55
f 136//56 137//56 135//56
f 137//57 134//57 135//57
f 138//58 141//58 140//58
f 141//59 142//59 140//59
f 142//60 139//60 140//60
f 143//61 146//61 145//61
f 146//62 147//62 145//62
f 147//63 144//63 145//63
f 148//64 151//64 150//64
f 151//65 152//65 150//65
f 152//66 149//66 150//66
f 117//67 134//67 119//67
f 119//68 137//68 120//68
f 120//69 136//69 118//69
f 138//70 122//70 141//70
f 141//71 124//71 142//71
f 142//72 123//72 139//72
f 143//73 126//73 146//73
f 146//74 128//74 147//74
f 147//75 127//75 144//75
f 148//76 130//76 151//76
f 151//77 132//77 152//77
f 152//78 131//78 149//78
f 133//10 139//10 118//10
f 119//1 120//1 27//1
f 124//1 121//1 123//1
f 122//1 121//1 124//1
f 128//1 125//1 127//1
f 126//1 125//1 128//1
f 132//1 129//1 131//1
f 130//1 129//1 132//1
f 32//1 121//1 122//1
f 118//1 121//1 32//1
f 126//1 31//1 125//1
f 129//1 31//1 126//1
f 28//1 129//1 130//1
f 28//1 31//1 129//1
f 120//1 118//1 27//1
f 118//1 32//1 27//1
f 32//1 31//1 27//1
f 31//1 28//1 27//1
f 25//2 28//2 130//2
f 144//3 125//3 31//3
f 29//3 32//3 122//3
f 134//2 117//2 27//2
f 41//4 42//4 21//4
f 42//4 2//4 21//4
f 2//4 22//4 21//4
f 5//14 6//14 104//14
f 98//79 5//79 104//79
f 99//14 98//14 43//14
f 98//14 104//14 44//14
f 43//14 98//14 44//14
f 3//80 23//80 22//80
f 45//7 46//7 23//7
f 46//7 4//7 23//7
f 4//7 24//7 23//7
f 1//81 21//81 24//81
f 8//2 12//2 9//2
f 46//9 48//9 114//9
f 113//9 46//9 114//9
f 42//10 44//10 104//10
f 103//10 42//10 104//10
f 2//3 103//3 107//3
f 43//10 41//10 99//10
f 41//10 97//10 99//10
f 7//14 8//14 114//14
f 108//82 7//82 114//82
f 109//14 108//14 47//14
f 108//14 114//14 48//14
f 47//14 108//14 48//14
f 47//9 45//9 109//9
f 45//9 107//9 109//9
f 4//2 113//2 97//2
f 12//83 16//83 13//83
f 7//9 11//9 12//9
f 6//3 10//3 11//3
f 5//10 9//10 10//10
f 14//3 69//3 73//3
f 11//1 15//1 16//1
f 10//84 14//84 15//84
f 9//1 13//1 14//1
f 16//2 77//2 66//2
f 15//9 73//9 77//9
f 74//14 70//14 65//14
f 20//2 24//2 21//2
f 19//9 23//9 24//9
f 18//3 22//3 23//3
f 17//10 21//10 22//10
f 140//15 133//15 135//15
f 18//85 140//85 17//85
f 140//86 135//86 17//86
f 150//16 143//16 145//16
f 20//87 150//87 19//87
f 150//88 145//88 19//88
f 140//17 29//17 138//17
f 145//89 30//89 29//89
f 145//90 29//90 140//90
f 19//91 145//91 18//91
f 145//92 140//92 18//92
f 150//18 25//18 148//18
f 135//93 26//93 25//93
f 135//94 25//94 150//94
f 17//95 135//95 20//95
f 135//96 150//96 20//96
f 29//9 37//9 40//9
f 149//9 129//9 126//9
f 31//10 39//10 38//10
f 34//2 35//2 36//2
f 38//3 39//3 40//3
f 32//14 40//14 39//14
f 30//1 38//1 37//1
f 27//9 35//9 34//9
f 25//10 33//10 36//10
f 28//14 36//14 35//14
f 26//1 34//1 33//1
f 7//14 108//14 102//14
f 52//2 60//2 58//2
f 58//2 60//2 94//2
f 60//2 93//2 94//2
f 93//2 95//2 94//2
f 95//2 96//2 94//2
f 49//10 42//10 41//10
f 52//10 43//10 44//10
f 51//10 44//10 42//10
f 50//10 41//10 43//10
f 53//9 46//9 45//9
f 56//9 47//9 48//9
f 55//9 48//9 46//9
f 54//9 45//9 47//9
f 49//2 57//2 59//2
f 51//2 59//2 60//2
f 50//2 58//2 57//2
f 55//2 53//2 81//2
f 82//2 55//2 81//2
f 84//2 82//2 81//2
f 83//2 84//2 81//2
f 59//3 57//3 89//3
f 90//3 59//3 89//3
f 92//3 90//3 89//3
f 91//3 92//3 89//3
f 64//10 94//10 89//10
f 58//1 64//1 63//1
f 59//14 90//14 93//14
f 54//3 56//3 86//3
f 56//3 85//3 86//3
f 85//3 87//3 86//3
f 87//3 88//3 86//3
f 62//9 86//9 81//9
f 54//1 62//1 61//1
f 70//20 72//20 67//20
f 72//97 71//97 68//97
f 71//98 69//98 66//98
f 74//99 76//99 72//99
f 76//100 75//100 71//100
f 75//101 73//101 69//101
f 78//26 80//26 76//26
f 80//102 79//102 75//102
f 79//103 77//103 73//103
f 65//104 67//104 80//104
f 67//105 68//105 79//105
f 68//106 66//106 77//106
f 13//10 66//10 69//10
f 86//107 88//107 83//107
f 88//108 87//108 84//108
f 87//109 85//109 82//109
f 94//110 96//110 91//110
f 96//111 95//111 92//111
f 95//112 93//112 90//112
f 55//14 82//14 85//14
f 108//44 111//44 105//44
f 111//100 110//100 106//100
f 110//113 107//113 103//113
f 98//38 101//38 115//38
f 101//105 100//105 116//105
f 100//114 97//114 113//114
f 5//14 98//14 112//14
f 134//67 137//67 119//67
f 137//68 136//68 120//68
f 136//115 133//115 118//115
f 122//70 124//70 141//70
f 124//71 123//71 142//71
f 123//116 121//116 139//116
f 126//117 128//117 146//117
f 128//74 127//74 147//74
f 127//75 125//75 144//75
f 130//76 132//76 151//76
f 132//77 131//77 152//77
f 131//118 129//118 149//118
f 139//10 121//10 118//10
