# Blender v2.76 (sub 0) OBJ File: ''
# www.blender.org
mtllib skybox.mtl
o Cube
v 1.000000 -1.000000 -1.000000
v 1.000000 -1.000000 1.000000
v -1.000000 -1.000000 1.000000
v -1.000000 -1.000000 -1.000000
v 1.000000 1.000000 -0.999999
v 0.999999 1.000000 1.000001
v -1.000000 1.000000 1.000000
v -1.000000 1.000000 -1.000000
vt 1.000000 1.003906
vt 0.833333 1.003906
vt 0.833333 0.003906
vt 1.000000 0.003906
vt 0.665634 -0.001953
vt 0.832300 -0.001953
vt 0.832300 0.998047
vt 0.665634 0.998047
vt 0.167154 0.000000
vt 0.333820 0.000000
vt 0.333820 1.000000
vt 0.167154 1.000000
vt 0.500488 0.000000
vt 0.500488 1.000000
vt 0.500651 0.001953
vt 0.667318 0.001953
vt 0.667318 1.001953
vt 0.500651 1.001953
vt 0.166692 0.999693
vt 0.000025 0.999693
vt 0.000025 -0.000307
vt 0.166692 -0.000307
vn 0.000000 1.000000 0.000000
vn 0.000000 -1.000000 0.000000
vn -1.000000 -0.000000 -0.000000
vn 0.000000 0.000000 -1.000000
vn 1.000000 0.000000 0.000000
vn -0.000000 -0.000000 1.000000
usemtl Material.001
s off
f 1/1/1 4/2/1 3/3/1 2/4/1
f 5/5/2 6/6/2 7/7/2 8/8/2
f 1/9/3 2/10/3 6/11/3 5/12/3
f 2/10/4 3/13/4 7/14/4 6/11/4
f 3/15/5 4/16/5 8/17/5 7/18/5
f 5/19/6 8/20/6 4/21/6 1/22/6
